<svg xmlns="http://www.w3.org/2000/svg" viewBox="-0.5 215.41 1281.7 425.09">
  <g transform="matrix(0.1, 0, 0, -0.1, 0, 640)" fill="#000000" stroke="none">
    <path d="M662 4232 c-59 -59 -25 -222 92 -457 42 -82 87 -181 102 -219 28 -74 45 -196 26 -196 -6 0 -14 4 -17 10 -3 5 -44 41 -89 79 -114 95 -161 160 -163 226 -1 27 -2 53 -2 57 -1 4 -11 13 -23 19 -18 10 -24 8 -35 -7 -22 -30 -15 -78 22 -150 41 -81 65 -108 166 -190 83 -69 120 -117 149 -193 21 -55 27 -162 11 -204 l-9 -23 -164 23 c-212 31 -474 35 -593 9 -44 -10 -87 -22 -95 -26 -14 -7 -18 -62 -28 -401 -7 -216 -10 -394 -8 -396 2 -3 1700 -8 3773 -13 2072 -5 4950 -12 6396 -15 l2627 -7 0 427 0 427 -22 -6 c-150 -41 -228 -50 -428 -50 -184 0 -218 2 -335 27 -176 36 -309 47 -575 47 -312 0 -539 -22 -628 -61 -40 -17 -49 -17 -120 -5 -42 8 -120 22 -172 31 -52 9 -105 18 -118 21 -21 4 -19 8 33 68 56 63 58 64 115 68 36 3 64 10 74 21 16 15 20 15 46 2 40 -21 54 -19 87 9 22 20 26 28 17 42 -8 14 -26 18 -88 19 -49 1 -83 -3 -94 -12 -23 -17 -52 -16 -52 2 0 16 78 65 104 65 10 0 31 9 47 21 l29 20 42 -35 c47 -41 52 -42 100 -21 31 12 35 18 30 41 -7 40 -69 63 -161 62 -53 -1 -75 2 -82 13 -11 17 -2 66 17 96 13 21 15 21 45 6 25 -12 50 -14 113 -10 74 6 85 5 125 -19 50 -28 61 -22 61 34 0 30 -2 32 -32 32 -18 0 -55 8 -81 17 -39 14 -52 15 -67 5 -23 -14 -60 -16 -60 -3 0 16 25 28 72 35 57 9 69 23 38 48 -24 19 -80 24 -109 9 -32 -18 -46 3 -44 66 4 98 -12 126 -51 88 -18 -19 -13 -61 15 -117 26 -52 24 -71 -13 -88 -30 -15 -41 -35 -69 -128 -6 -18 -7 -43 -3 -55 5 -18 4 -20 -7 -9 -18 17 -14 107 6 156 15 35 15 40 0 63 -16 24 -17 24 -29 6 -27 -40 -35 -83 -38 -202 -3 -104 -6 -126 -21 -135 -12 -8 -22 -8 -34 0 -21 14 -21 33 1 91 18 48 13 69 -16 79 -64 20 -105 -140 -48 -191 19 -17 19 -19 2 -47 -20 -34 -47 -52 -68 -44 -18 7 -19 74 -2 146 9 40 9 58 -1 85 -10 28 -9 42 3 80 9 25 16 62 16 81 0 46 14 70 44 78 30 7 67 56 69 93 2 24 -1 28 -23 25 -34 -4 -69 -28 -88 -63 -23 -40 -32 -36 -32 15 0 33 7 52 30 81 36 45 37 64 7 94 -19 17 -26 19 -34 9 -20 -24 -63 -138 -69 -181 -5 -36 -2 -48 20 -74 14 -17 26 -38 26 -46 0 -26 -12 -47 -26 -47 -26 0 -49 52 -54 124 -4 55 -9 72 -21 74 -25 5 -30 -23 -23 -106 7 -70 10 -78 41 -107 30 -28 35 -39 40 -91 7 -93 6 -126 -5 -174 -6 -25 -9 -71 -5 -102 3 -32 2 -58 -3 -58 -20 0 -32 41 -39 126 -9 107 -24 143 -70 168 -23 13 -34 25 -31 35 12 38 27 159 24 193 -1 20 1 40 5 44 4 4 7 22 7 40 0 24 -5 34 -20 39 -29 9 -36 1 -50 -52 l-12 -48 -13 33 c-8 18 -21 35 -30 38 -11 4 -15 20 -15 54 0 50 -28 97 -71 121 -32 17 -35 -16 -5 -52 15 -17 26 -43 26 -60 0 -33 -5 -34 -40 -14 -28 16 -50 19 -50 7 0 -18 105 -133 126 -138 13 -3 24 -10 24 -14 0 -5 5 -44 11 -86 13 -92 39 -149 79 -172 30 -17 40 -38 40 -85 0 -41 39 -187 56 -211 19 -27 18 -66 -2 -66 -18 0 -44 58 -44 99 0 17 -7 48 -16 70 -13 32 -24 43 -59 57 -48 18 -60 38 -71 116 -3 28 -1 60 6 81 17 44 7 78 -30 114 -19 18 -30 38 -30 56 0 30 -39 77 -65 77 -23 0 -20 -71 5 -103 11 -14 20 -32 20 -41 0 -15 -3 -15 -29 -2 -16 9 -31 22 -34 30 -3 8 -24 20 -46 27 -30 9 -41 18 -46 38 -8 30 -53 81 -72 81 -8 0 -27 7 -43 15 -23 12 -31 25 -40 69 -11 56 -25 74 -74 100 -34 17 -66 6 -66 -23 0 -14 10 -20 39 -25 40 -6 51 -20 51 -60 0 -12 7 -31 15 -42 17 -22 20 -38 5 -29 -6 4 -24 4 -40 0 -24 -5 -30 -12 -30 -32 0 -23 3 -25 28 -19 15 4 48 9 73 13 43 5 47 3 72 -28 14 -19 33 -42 42 -51 14 -17 13 -18 -16 -18 -16 0 -47 10 -68 22 -38 22 -39 22 -80 4 -22 -11 -47 -29 -55 -41 -14 -20 -13 -24 3 -39 23 -21 28 -20 63 9 34 28 55 31 83 11 11 -8 45 -16 75 -19 96 -9 151 -23 172 -45 l21 -21 -29 -6 c-57 -13 -86 -29 -95 -52 -13 -34 -13 -33 26 -33 21 0 48 9 65 21 27 21 30 21 54 6 16 -11 27 -30 31 -54 4 -21 13 -52 21 -70 21 -47 17 -57 -12 -34 -27 21 -78 28 -88 12 -6 -10 56 -55 97 -70 16 -6 46 -11 68 -11 36 0 41 -3 54 -33 8 -19 17 -56 20 -83 l7 -49 -76 -23 c-72 -21 -92 -22 -439 -22 l-364 0 -114 30 c-270 70 -303 74 -574 74 -293 1 -323 -3 -555 -82 -148 -50 -176 -56 -268 -60 -56 -2 -123 -1 -148 3 -40 6 -47 11 -61 43 -14 34 -14 39 12 101 48 117 34 227 -38 308 -40 45 -50 -4 -17 -87 27 -68 25 -90 -11 -194 -18 -52 -29 -101 -27 -118 5 -29 5 -29 -36 -22 -23 3 -44 11 -48 18 -13 20 -50 168 -55 220 -4 39 2 77 26 159 44 152 39 231 -19 289 -56 56 -85 23 -45 -51 40 -70 38 -143 -6 -224 -31 -57 -34 -69 -34 -152 1 -70 6 -105 25 -157 13 -37 22 -69 20 -71 -3 -3 -30 -1 -61 5 l-57 10 -6 59 c-9 73 -22 111 -58 168 -39 62 -36 102 11 208 45 99 81 221 81 271 0 47 -22 90 -72 145 -70 74 -108 53 -53 -29 32 -47 59 -137 49 -166 -4 -13 -26 -57 -50 -99 -56 -96 -74 -149 -74 -212 0 -49 32 -170 71 -269 11 -26 19 -51 19 -56 0 -5 -83 -12 -187 -15 -150 -4 -221 -11 -349 -35 -249 -47 -343 -55 -568 -49 -223 6 -282 16 -466 77 -157 53 -286 67 -457 52 -176 -15 -315 -44 -475 -97 -201 -66 -282 -63 -589 26 -75 21 -167 46 -205 54 -38 8 -79 18 -91 20 l-23 5 19 50 c10 27 43 84 73 127 84 120 94 145 90 224 -3 39 -81 120 -152 158 -34 18 -64 39 -67 47 -9 24 33 59 105 89 76 32 183 119 202 164 7 17 10 41 6 54 -7 31 -44 77 -60 77 -7 0 -24 -27 -38 -59 -29 -67 -59 -90 -173 -135 -94 -37 -132 -68 -146 -116 -21 -69 -1 -111 102 -213 80 -79 89 -92 89 -125 0 -42 -26 -97 -73 -157 -18 -22 -42 -69 -54 -105 l-22 -65 -98 -6 c-54 -4 -168 -22 -253 -40 -147 -31 -166 -33 -360 -33 -159 0 -262 7 -460 29 -189 21 -304 28 -445 29 -207 0 -253 -6 -441 -59 -145 -41 -281 -59 -385 -50 l-76 7 19 71 c23 84 38 103 130 157 66 40 139 109 230 217 23 29 73 75 111 103 37 28 67 54 67 57 0 21 -37 84 -52 89 -35 11 -115 -45 -163 -114 -48 -70 -50 -71 -34 -3 17 77 -33 266 -70 259 -17 -4 -18 -9 -6 -144 7 -75 6 -86 -18 -138 -15 -31 -51 -82 -80 -114 -62 -65 -161 -212 -189 -281 l-19 -46 6 95 c5 82 3 108 -20 195 -102 384 -105 412 -55 524 24 56 29 78 23 98 -15 43 -38 51 -68 23 -28 -26 -75 -118 -75 -147 0 -10 -4 -25 -10 -33 -7 -11 -14 -3 -30 35 -35 80 -50 153 -55 260 -6 115 -19 141 -53 107z"/>
  </g>
  <rect y="418.977" width="1280.697" height="221.023" style="stroke: rgb(0, 0, 0);"/>
</svg>